<svg width="20" height="20" viewBox="0 0 20 20" fill="none" xmlns="http://www.w3.org/2000/svg">
<path d="M15.5794 1.67773H4.42041C2.88545 1.67773 1.64111 2.92207 1.64111 4.45703V15.616C1.64111 17.151 2.88545 18.3953 4.42041 18.3953H15.5794C17.1144 18.3953 18.3587 17.151 18.3587 15.616V4.45703C18.3587 2.92207 17.1144 1.67773 15.5794 1.67773Z" fill="black"/>
<path d="M15.2106 8.66885V6.43955C12.2965 6.3165 12.2028 3.66846 12.2028 3.41963V3.40088H9.95044V12.0833C9.95019 12.4585 9.83164 12.8241 9.61164 13.128C9.39164 13.4319 9.0814 13.6587 8.72505 13.7761C8.36871 13.8935 7.98441 13.8956 7.62683 13.782C7.26925 13.6684 6.95659 13.4449 6.73335 13.1434C6.5101 12.8419 6.38764 12.4776 6.38337 12.1024C6.3791 11.7272 6.49325 11.3603 6.70958 11.0537C6.92591 10.7472 7.2334 10.5167 7.58831 10.395C7.94321 10.2733 8.32746 10.2666 8.68638 10.3759V8.07666C8.51382 8.05452 8.34003 8.04343 8.16607 8.04346C7.36706 8.04346 6.586 8.28039 5.92165 8.72429C5.2573 9.1682 4.7395 9.79913 4.43374 10.5373C4.12797 11.2755 4.04797 12.0878 4.20385 12.8714C4.35973 13.6551 4.74448 14.3749 5.30947 14.9399C5.87445 15.5049 6.59428 15.8896 7.37793 16.0455C8.16158 16.2014 8.97386 16.1214 9.71205 15.8156C10.4502 15.5099 11.0812 14.9921 11.5251 14.3277C11.969 13.6634 12.2059 12.8823 12.2059 12.0833C12.2059 12.0267 12.2059 11.9704 12.202 11.9146V7.63916C13.2391 8.58799 15.2106 8.66885 15.2106 8.66885Z" fill="#00F6EF"/>
<path d="M15.8739 9.21885V6.98838C12.9595 6.86533 12.8661 4.21728 12.8661 3.96846V3.94971H10.6138V12.6321C10.6136 13.0073 10.4951 13.3729 10.2752 13.6769C10.0552 13.9809 9.745 14.2078 9.38866 14.3252C9.03232 14.4427 8.64801 14.4449 8.29039 14.3313C7.93278 14.2177 7.62008 13.9943 7.3968 13.6928C7.17351 13.3912 7.051 13.027 7.0467 12.6518C7.0424 12.2766 7.15653 11.9096 7.37286 11.603C7.58918 11.2965 7.89667 11.0659 8.25159 10.9442C8.60651 10.8225 8.99077 10.8158 9.34971 10.9251V8.62549C9.17673 8.60382 9.00255 8.59326 8.82822 8.59385C8.0292 8.59408 7.24819 8.83125 6.58396 9.27536C5.91974 9.71948 5.40212 10.3506 5.09658 11.0889C4.79104 11.8272 4.7113 12.6395 4.86743 13.4231C5.02357 14.2067 5.40858 14.9265 5.97376 15.4913C6.53895 16.0561 7.25893 16.4406 8.04265 16.5962C8.82638 16.7518 9.63864 16.6715 10.3767 16.3655C11.1148 16.0594 11.7456 15.5414 12.1892 14.8769C12.6329 14.2123 12.8695 13.4312 12.8692 12.6321C12.8692 12.5755 12.8692 12.5192 12.8653 12.4634V8.18799C13.9024 9.13682 15.8739 9.21885 15.8739 9.21885Z" fill="white"/>
<path d="M12.2585 3.94971C12.3671 4.54111 12.6843 5.46572 13.6089 6.00674C12.9023 5.18369 12.8667 4.12158 12.8667 3.96846V3.94971H12.2585Z" fill="#FF004F"/>
<path d="M15.8738 9.21875V6.98828C15.6507 6.98011 15.4287 6.95398 15.2098 6.91016V8.66602C15.2098 8.66602 13.2383 8.58516 12.202 7.63633V11.9105C12.2043 11.9664 12.2059 12.0227 12.2059 12.0793C12.2058 12.8102 12.0074 13.5274 11.6319 14.1545C11.2564 14.7815 10.7178 15.295 10.0735 15.6401C9.42923 15.9853 8.70339 16.1492 7.97332 16.1144C7.24324 16.0796 6.53627 15.8474 5.92773 15.4426C6.48738 16.0205 7.20686 16.4182 7.99398 16.5847C8.78109 16.7511 9.59998 16.6787 10.3457 16.3768C11.0914 16.0749 11.73 15.5571 12.1796 14.89C12.6291 14.2228 12.8693 13.4366 12.8691 12.632C12.8691 12.5754 12.8691 12.5191 12.8652 12.4633V8.18789C13.9023 9.13672 15.8738 9.21875 15.8738 9.21875Z" fill="#FF004F"/>
<path d="M8.68628 10.3723C8.2562 10.2411 7.79246 10.2771 7.38778 10.4731C6.9831 10.669 6.66729 11.0105 6.50349 11.4293C6.3397 11.848 6.33999 12.3131 6.50431 12.7317C6.66863 13.1502 6.98486 13.4913 7.38979 13.6867C7.16851 13.3845 7.04794 13.0203 7.04517 12.6457C7.0424 12.2711 7.15757 11.9051 7.37436 11.5996C7.59115 11.2941 7.89857 11.0645 8.25307 10.9435C8.60757 10.8224 8.99118 10.8159 9.34956 10.925V8.62541C9.17658 8.60375 9.0024 8.59318 8.82807 8.59377C8.78003 8.59377 8.73276 8.59377 8.6851 8.59651L8.68628 10.3723Z" fill="#FF004F"/>
</svg>

